<?xml version="1.0" encoding="UTF-8"?><svg id="Layer_2" xmlns="http://www.w3.org/2000/svg" xmlns:xlink="http://www.w3.org/1999/xlink" viewBox="0 0 675.79 120.8"><defs><style>.cls-1{fill:none;}.cls-2{letter-spacing:.1em;}.cls-3{letter-spacing:.1em;}.cls-4{clip-path:url(#clippath);}.cls-5{fill:#025c7a;}.cls-6{fill:#00222a;}.cls-7{fill:#00afd1;}.cls-8{clip-path:url(#clippath-1);}.cls-9{clip-path:url(#clippath-4);}.cls-10{clip-path:url(#clippath-3);}.cls-11{clip-path:url(#clippath-2);}.cls-12{letter-spacing:.04em;}.cls-13{fill:#c2c4c6;font-family:IBMPlexSans-Bold, 'IBM Plex Sans';font-size:28px;font-weight:700;}</style><clipPath id="clippath"><path class="cls-1" d="m400.13,37.43c-4.85,2.33-8.22,6.16-10.12,11.22-1.34,3.58-1.7,7.3-1.34,11.08.78,8.11,4.63,14.25,11.99,17.96,5.45,2.74,11.3,3.24,17.27,2.46,2.64-.34,5.2-.98,7.61-2.06.06-.02.12-.02.19-.05,2.86-1.06,4.71-2.37,7.28-4.92.49-.49.49-.89.08-1.44-.57-.75-1.04-1.58-1.57-2.37-1.25-1.89-2.5-3.78-3.69-5.58-1.36,1.46-3.27,2.56-5.09,3.73-1.72.62-3.5,1-5.34,1.14-3.59.28-7.05-.12-10.02-2.36-3.49-2.61-4.84-7.56-3.5-12.52,1.09-4.06,4.5-6.81,9.18-7.38,3.7-.44,7.22.12,10.64,1.59,1.59.93,3.18,1.86,4.38,3.05,1.13-1.83,2.32-3.76,3.5-5.69.5-.81.94-1.65,1.49-2.42.4-.56.38-.97-.13-1.44-1.87-1.74-3.37-2.85-5.11-3.71-.25-.24-.79-.44-1.85-.87-4.17-1.68-8.34-2.56-12.5-2.56-4.48,0-8.95,1.02-13.35,3.13"/></clipPath><clipPath id="clippath-1"><path class="cls-1" d="m214.26,30.42h16.04c6.87,0,10.84,3.81,10.84,9.85s-4.14,9.76-11.25,9.76h-15.63v-19.61Zm-15.72-12.58v61.32h15.72v-16.96h18.11c15.31,0,24.9-8.69,24.9-22.34s-9.27-22.01-24.74-22.01h-33.99Z"/></clipPath><clipPath id="clippath-2"><path class="cls-1" d="m361.17,44.49c5.29,0,8.27,3.06,8.27,7.86h-16.71c.83-5.54,3.98-7.86,8.44-7.86m-23.42,12.74c0,14.48,10.26,23.17,26.31,23.17,7.04,0,13.65-1.66,17.05-3.48l-1.74-10.59c-3.56,1.66-8.86,2.9-13.65,2.9-7.62,0-11.5-2.73-12.74-8.85h30.12c.17-1.24.33-3.31.33-4.97,0-13.08-8.69-21.27-22.09-21.27-14.31,0-23.58,9.19-23.58,23.09"/></clipPath><clipPath id="clippath-3"><path class="cls-1" d="m302.31,35.57c-3.9,1.03-7.27,2.84-9.42,6.17-4.08,6.36-1.6,14.25,5.75,17.57,3.1,1.4,6.54,2.18,9.82,3.24,2.11.68,4.24,1.3,6.31,2.07,1.12.42,2,1.22,1.9,2.49-.11,1.38-1.08,2.22-2.42,2.48-1.47.28-3,.45-4.49.38-3.97-.17-7.76-1.23-11.45-2.54-1.65-.59-3.27-1.25-4.88-1.86-.11.09-.19.13-.21.19-.91,3.15-1.83,6.29-2.68,9.45-.07.25.29.79.58.9,2.41.92,4.79,1.96,7.29,2.61,7.18,1.88,14.46,2.43,21.78.67,7.08-1.7,11.27-6,11.9-12.37.48-4.76-1.36-8.6-5.85-11.18-.84-.48-1.69-.98-2.61-1.27-3.22-1.04-6.47-1.97-9.7-2.99-1.89-.6-3.78-1.23-5.62-1.96-1.03-.41-1.92-1.12-1.74-2.34.17-1.19,1.2-1.63,2.29-1.93.54-.15,1.11-.24,1.67-.3,4.6-.49,9.07.23,13.48,1.33,1.45.36,2.86.85,4.26,1.26.1-.12.17-.17.18-.23.44-3.13.89-6.26,1.27-9.39.03-.28-.34-.8-.63-.89-2.05-.63-4.09-1.31-6.19-1.71-3.55-.68-7.1-1.11-10.65-1.11-3.32,0-6.64.37-9.94,1.25"/></clipPath><clipPath id="clippath-4"><path class="cls-1" d="m149.99,43.49c2.13-5.1,2.41-5.84,3.62-8.81,1.2,2.88,2.04,4.82,3.8,8.63l6.92,14.81h-20.72l6.37-14.63Zm-3.16-26.53l-29.41,61.89h17.16l3.67-8.42h31.83l3.93,8.42h17.35l-29.32-61.89h-15.21Z"/></clipPath></defs><g id="Layer_1-2"><g><g><g class="cls-4"><rect class="cls-6" x="386.5" y="32.26" width="48.93" height="50.26"/></g><g class="cls-8"><rect class="cls-6" x="196.49" y="15.8" width="62.82" height="65.4"/></g><rect class="cls-6" x="265.55" y="17.84" width="15.72" height="61.32"/><g class="cls-11"><rect class="cls-6" x="335.71" y="32.11" width="49.76" height="50.34"/></g><g class="cls-10"><rect class="cls-6" x="288.5" y="32.28" width="45.72" height="50.22"/></g><g class="cls-9"><rect class="cls-6" x="115.39" y="14.92" width="78.02" height="65.97"/></g><g><path class="cls-6" d="m513.43,19.7l-3.26,12.19c-3.51-1.5-10.52-3.59-18.04-3.59-6.26,0-10.1,1.92-10.1,5.18s3.67,4.68,10.35,6.6c11.77,3.42,23.13,6.68,23.13,20.37s-10.69,19.37-25.97,19.37c-10.44,0-19.87-2.84-24.71-5.68l4.01-12.78c4.51,2.67,12.61,5.59,20.46,5.59,5.76,0,10.52-1.92,10.52-5.51s-4.59-5.18-11.86-7.18c-9.18-2.67-22.04-6.76-22.04-20.04,0-11.94,10.35-18.79,26.05-18.79,8.77,0,16.7,2.17,21.46,4.26Z"/><path class="cls-6" d="m561.11,36.9l-2.25,11.19c-2.42-1.59-6.26-2.84-10.52-2.84-7.51,0-12.19,4.17-12.19,11.36s4.84,11.44,12.44,11.44c4.76,0,9.02-1.59,11.44-3.42l1.84,11.02c-2.92,2.34-8.85,4.34-15.7,4.34-14.61,0-25.05-9.1-25.05-23.55s10.6-23.21,25.63-23.13c5.01.08,10.44,1.09,14.36,3.59Z"/><path class="cls-6" d="m602.11,38.99v-4.43h13.44v44.17h-13.44v-4.93c-2.09,3.09-7.51,6.18-13.94,6.18-12.02,0-21.12-9.1-21.12-23.3s8.93-23.38,22.13-23.38c6.01,0,10.94,2.84,12.94,5.68Zm-19.87,17.87c0,6.68,3.92,11.02,10.35,11.02,3.67,0,6.76-1.25,7.93-2.25v-17.45c-1.08-.92-4.01-2.17-7.93-2.17-6.43,0-10.35,4.01-10.35,10.85Z"/><path class="cls-6" d="m671.41,52.51v26.22h-15.03v-25.05c0-5.51-2.76-7.77-7.85-7.77-3.01,0-5.76.83-7.6,2.17v30.64h-15.03v-44.17h13.44v5.26c3.34-4.01,8.27-6.51,14.44-6.51,11.02,0,17.62,7.01,17.62,19.2Z"/></g><path class="cls-5" d="m75.53,54.12c-1.32,5.66-3.64,11.07-6.91,15.98-2.06,3.1-3.13,4.4-7.31,8.61-2.53,2.55-8.66,6.45-13.23,8.95-2.98,1.62-5.4,2.33-5.4,2.33l-4.73-2.2c-8.15-3.87-15.06-9.85-20.02-17.43-5.25-8.03-8.03-17.35-8.03-26.95v-13.92l.25-.14L42.88,11.3l.23.12,19,10.2,7.33-7.33L42.81,0,0,23.61v19.78c0,11.54,3.33,22.75,9.65,32.4,6.31,9.65,15.23,17.18,25.8,21.79l7.14,3.11s11.5-4.11,18.75-9.59c5.43-4.1,11.41-9.29,15.53-15.49,6.45-9.71,9.86-21.02,9.86-32.69l-11.2,11.2Z"/><rect class="cls-7" x="28.53" y="39.37" width="14.17" height="33.52" transform="translate(-30.42 48.51) rotate(-51.02)"/><rect class="cls-7" x="31.59" y="40.89" width="54.34" height="14.17" transform="translate(-16.74 55.32) rotate(-44.78)"/></g><text class="cls-13" transform="translate(595.21 113.1)"><tspan class="cls-2" x="0" y="0">BE</tspan><tspan class="cls-12" x="41.27" y="0">T</tspan><tspan class="cls-3" x="58.6" y="0">A</tspan></text></g></g></svg>